<svg width="30" height="17" viewBox="0 0 30 17" fill="none" xmlns="http://www.w3.org/2000/svg">
<path d="M3.2344 16.7271H2.77627e-05L5.88888 -0.000222445H9.62964L15.5267 16.7271H12.2923L7.8246 3.43018H7.69392L3.2344 16.7271ZM3.34058 10.1685H12.1616V12.6024H3.34058V10.1685ZM17.1549 16.7271V-0.000222445H23.4276C24.7126 -0.000222445 25.7908 0.223026 26.662 0.669522C27.5386 1.11602 28.2002 1.7422 28.6467 2.54807C29.0986 3.3485 29.3246 4.28233 29.3246 5.34956C29.3246 6.42224 29.0959 7.35335 28.6385 8.14289C28.1866 8.92698 27.5196 9.53411 26.6375 9.96427C25.7554 10.389 24.6718 10.6013 23.3868 10.6013H18.9191V8.08572H22.9784C23.7298 8.08572 24.3451 7.98226 24.8243 7.77535C25.3034 7.56299 25.6574 7.25534 25.8861 6.85241C26.1202 6.44402 26.2373 5.94308 26.2373 5.34956C26.2373 4.75605 26.1202 4.24966 25.8861 3.83039C25.6519 3.40567 25.2953 3.08441 24.8161 2.86661C24.3369 2.64336 23.7189 2.53174 22.962 2.53174H20.1851V16.7271H17.1549ZM25.7962 9.14751L29.9372 16.7271H26.5558L22.4883 9.14751H25.7962Z" fill="url(#paint0_linear_9_2)"/>
<defs>
<linearGradient id="paint0_linear_9_2" x1="-0.318055" y1="-1.89828" x2="31.191" y2="17.7949" gradientUnits="userSpaceOnUse">
<stop stop-color="#1BC090"/>
<stop offset="1" stop-color="#FFCF40"/>
</linearGradient>
</defs>
</svg>
